<?xml version="1.0" standalone="no"?>
<!DOCTYPE svg PUBLIC "-//W3C//DTD SVG 20010904//EN"
 "http://www.w3.org/TR/2001/REC-SVG-20010904/DTD/svg10.dtd">
<svg version="1.0" xmlns="http://www.w3.org/2000/svg"
 width="182.000000pt" height="182.000000pt" viewBox="0 0 182.000000 182.000000"
 preserveAspectRatio="xMidYMid meet">
<metadata>
Created by potrace 1.11, written by Peter Selinger 2001-2013
</metadata>
<g transform="translate(0.000000,182.000000) scale(0.100000,-0.100000)"
fill="#000000" stroke="none">
<path d="M300 1223 c-12 -27 -23 -52 -24 -58 -1 -5 -8 -20 -14 -32 -7 -13 -10
-23 -6 -23 3 0 2 -6 -4 -13 -6 -6 -19 -35 -30 -62 -18 -45 -19 -54 -6 -84 8
-18 14 -35 14 -37 0 -1 -15 -4 -32 -6 -32 -3 -34 -7 -95 -148 -34 -80 -68
-158 -75 -175 -6 -16 -13 -33 -16 -37 -2 -5 66 -8 152 -8 l155 0 -15 38 c-8
20 -19 46 -24 57 -41 88 -88 210 -85 215 10 16 53 7 64 -14 14 -30 42 -98 46
-116 2 -8 20 -51 39 -95 l35 -80 241 -3 c132 -1 240 -1 240 1 0 7 -111 259
-159 360 -28 59 -51 109 -51 111 0 2 -11 29 -25 60 -14 31 -25 59 -26 64 0 4
-6 16 -12 27 -6 11 -12 22 -13 25 0 3 -8 22 -18 43 l-16 37 -110 0 -109 0 -21
-47z"/>
<path d="M909 1253 c-3 -10 -4 -173 -4 -363 l1 -345 452 -3 c249 -1 452 1 452
5 0 5 -19 21 -43 38 -42 29 -125 92 -183 140 -18 14 -34 25 -38 25 -3 0 -14 6
-23 14 -53 43 -104 83 -128 101 -51 36 -59 47 -44 59 33 26 179 136 259 196
113 84 149 111 174 132 20 16 -2 17 -425 18 -417 0 -447 -1 -450 -17z"/>
</g>
</svg>
